<?xml version="1.0" encoding="UTF-8" standalone="no"?>
<!DOCTYPE svg PUBLIC "-//W3C//DTD SVG 1.1//EN" "http://www.w3.org/Graphics/SVG/1.1/DTD/svg11.dtd">
<svg width="100%" height="100%" viewBox="0 0 995 1012" version="1.1" xmlns="http://www.w3.org/2000/svg" xmlns:xlink="http://www.w3.org/1999/xlink" xml:space="preserve" xmlns:serif="http://www.serif.com/" style="fill-rule:evenodd;clip-rule:evenodd;stroke-linejoin:round;stroke-miterlimit:2;">
    <g transform="matrix(0.1,0,0,-0.1,-128,1134)">
        <path d="M3768,11205C3199,11136 2677,10887 2261,10485C1876,10114 1636,9700 1511,9190C1446,8924 1449,9091 1453,6220L1456,3615L1477,3508C1612,2832 1972,2252 2505,1853C2858,1589 3254,1426 3705,1358C3779,1347 4249,1345 6275,1345C8604,1345 8762,1346 8865,1363C9550,1473 10127,1816 10548,2360C10812,2702 10978,3076 11063,3525C11084,3634 11084,3648 11087,6205C11091,9012 11093,8904 11034,9165C10979,9412 10851,9728 10715,9950C10525,10263 10221,10576 9898,10793C9665,10949 9305,11101 9020,11164C8756,11222 8851,11220 6255,11219C4369,11218 3853,11215 3768,11205ZM6578,9359C6976,9316 7407,9156 7765,8919C8503,8430 8975,7627 9075,6690C9102,6438 9093,6048 9054,5815C8963,5270 8756,4790 8431,4370C8339,4250 8104,4013 7981,3914C7583,3594 7123,3398 6610,3329C6487,3312 6093,3312 5970,3328C5590,3378 5241,3502 4905,3705L4795,3771L4610,3720C4508,3691 4297,3632 4141,3588C3921,3526 3843,3508 3795,3509C3686,3510 3592,3567 3543,3663C3496,3756 3499,3791 3580,4131C3671,4514 3748,4840 3762,4906C3773,4954 3772,4961 3736,5043C3535,5512 3435,6067 3469,6530C3530,7347 3845,8051 4392,8586C4717,8905 5101,9133 5537,9265C5658,9302 5866,9345 5990,9359C6100,9371 6465,9372 6578,9359Z" style="fill-rule:nonzero;"/>
        <path d="M6135,8983C5805,8956 5526,8879 5238,8735C4848,8539 4508,8232 4268,7860C4037,7501 3886,7060 3840,6607C3821,6427 3832,6058 3860,5900C3905,5646 3975,5412 4077,5180C4162,4987 4160,5014 4100,4758C4072,4635 4033,4468 4014,4385C3995,4303 3963,4166 3943,4082C3924,3998 3909,3928 3911,3925C3914,3923 4112,3977 4353,4046C4594,4114 4808,4170 4828,4170C4870,4170 4892,4159 5016,4076C5309,3881 5657,3750 6001,3704C6172,3682 6519,3689 6672,3719C7348,3849 7901,4215 8273,4780C8490,5110 8639,5499 8702,5903C8732,6096 8735,6560 8707,6740C8623,7273 8430,7726 8130,8096C7728,8591 7093,8930 6476,8980C6355,8989 6226,8991 6135,8983Z" style="fill-rule:nonzero;"/>
        <g transform="matrix(13.288502,0,0,-11.451978,-517.072114,12247.532174)">
            <path d="M507.84,636L427.17,635.5L422.86,632.47C420.49,630.8 417.19,627.24 415.52,624.55L412.5,619.66L412.22,559.18C411.97,505.16 412.12,498.17 413.59,493.73C415.71,487.33 421.29,481.78 428.14,479.22L433.5,477.23L434.1,452.86C434.77,425.25 435.39,421.9 442.5,407.5C452.42,387.39 468.52,373.91 491.04,366.84C497.45,364.83 500.54,364.51 513,364.53C526.75,364.55 527.99,364.72 536.95,367.82C548.75,371.91 556.38,376.51 565.27,384.9C578.22,397.11 585.76,410.26 589.11,426.5C590.58,433.59 590.98,439.96 590.99,456.54L591,477.59L595.49,478.79C600.76,480.2 607.33,485.76 610.08,491.15C611.93,494.77 612.01,497.65 612.03,556.52C612.05,614.87 611.95,618.32 610.15,622.39C606.96,629.61 600.15,634.83 592.5,635.93C590.3,636.24 552.2,636.28 507.84,636ZM528.63,596.53C528.94,595.71 527.8,588.4 526.09,580.28C524.39,572.15 522.99,564.57 523,563.44C523,562.3 524.31,560.41 525.91,559.23C527.51,558.04 530.04,554.58 531.53,551.53C534.99,544.46 534.69,537.56 530.62,530.62C521.9,515.73 500.69,516.74 493.4,532.38C488.94,541.97 490.99,552.28 498.72,559.06L502.31,562.21L498.76,579.35C496.81,588.78 495.42,596.84 495.67,597.25C495.92,597.66 503.31,598 512.09,598C525.25,598 528.16,597.74 528.63,596.53ZM568.41,456C568.32,435.38 568.21,434.17 565.6,426.5C559.75,409.23 546.64,395.91 530,390.34C521.36,387.45 502.58,387.73 494,390.89C477.29,397.03 465.27,409.22 459.27,426.12C456.81,433.05 456.62,434.87 456.23,455.76L455.81,478.02L512.15,477.76L568.5,477.5L568.41,456Z" style="fill:rgb(234,30,38);fill-rule:nonzero;"/>
        </g>
    </g>
</svg>
